<mxfile host="Electron" modified="2024-05-07T12:16:42.263Z" agent="Mozilla/5.0 (Windows NT 10.0; Win64; x64) AppleWebKit/537.36 (KHTML, like Gecko) draw.io/24.2.5 Chrome/120.0.6099.109 Electron/28.1.0 Safari/537.36" etag="bz1EBiCq5K5xkp-cBhh2" version="24.2.5" type="device">
  <diagram id="C5RBs43oDa-KdzZeNtuy" name="Page-1">
    <mxGraphModel dx="3217" dy="1407" grid="1" gridSize="10" guides="1" tooltips="1" connect="1" arrows="1" fold="1" page="1" pageScale="1" pageWidth="827" pageHeight="1169" math="0" shadow="0">
      <root>
        <mxCell id="WIyWlLk6GJQsqaUBKTNV-0" />
        <mxCell id="WIyWlLk6GJQsqaUBKTNV-1" parent="WIyWlLk6GJQsqaUBKTNV-0" />
        <mxCell id="WIyWlLk6GJQsqaUBKTNV-2" value="" style="rounded=0;html=1;jettySize=auto;orthogonalLoop=1;fontSize=11;endArrow=block;endFill=0;endSize=8;strokeWidth=1;shadow=0;labelBackgroundColor=none;edgeStyle=orthogonalEdgeStyle;" parent="WIyWlLk6GJQsqaUBKTNV-1" source="WIyWlLk6GJQsqaUBKTNV-3" edge="1">
          <mxGeometry relative="1" as="geometry">
            <mxPoint x="385" y="120" as="targetPoint" />
          </mxGeometry>
        </mxCell>
        <mxCell id="WIyWlLk6GJQsqaUBKTNV-3" value="L&#39;operatore fa partire l&#39;applicativo" style="rounded=1;whiteSpace=wrap;html=1;fontSize=12;glass=0;strokeWidth=1;shadow=0;" parent="WIyWlLk6GJQsqaUBKTNV-1" vertex="1">
          <mxGeometry x="320" y="30" width="130" height="60" as="geometry" />
        </mxCell>
        <mxCell id="1Bu1qQsimD0IRLWMEUHT-5" value="" style="edgeStyle=orthogonalEdgeStyle;rounded=0;orthogonalLoop=1;jettySize=auto;html=1;" parent="WIyWlLk6GJQsqaUBKTNV-1" source="1Bu1qQsimD0IRLWMEUHT-14" target="1Bu1qQsimD0IRLWMEUHT-4" edge="1">
          <mxGeometry relative="1" as="geometry" />
        </mxCell>
        <mxCell id="1Bu1qQsimD0IRLWMEUHT-10" value="" style="edgeStyle=orthogonalEdgeStyle;rounded=0;orthogonalLoop=1;jettySize=auto;html=1;" parent="WIyWlLk6GJQsqaUBKTNV-1" source="1Bu1qQsimD0IRLWMEUHT-16" target="1Bu1qQsimD0IRLWMEUHT-9" edge="1">
          <mxGeometry relative="1" as="geometry" />
        </mxCell>
        <mxCell id="1Bu1qQsimD0IRLWMEUHT-3" value="Il dato da inserire&amp;nbsp;&lt;div&gt;è una telefonata o un appuntamento?&lt;/div&gt;" style="rhombus;whiteSpace=wrap;html=1;" parent="WIyWlLk6GJQsqaUBKTNV-1" vertex="1">
          <mxGeometry x="20" y="280" width="162.5" height="130" as="geometry" />
        </mxCell>
        <mxCell id="1Bu1qQsimD0IRLWMEUHT-4" value="L&#39;operatore inserisce il Nome del cliente, numero di telefono, data e ora e una breve nota" style="shape=parallelogram;perimeter=parallelogramPerimeter;whiteSpace=wrap;html=1;fixedSize=1;" parent="WIyWlLk6GJQsqaUBKTNV-1" vertex="1">
          <mxGeometry x="-320" y="110" width="252.5" height="75" as="geometry" />
        </mxCell>
        <mxCell id="1Bu1qQsimD0IRLWMEUHT-6" value="L&#39;operatore deve inserire&lt;div&gt;dei nuovi dati o&amp;nbsp;&lt;/div&gt;&lt;div&gt;cancellarne di esistenti?&lt;/div&gt;" style="rhombus;whiteSpace=wrap;html=1;" parent="WIyWlLk6GJQsqaUBKTNV-1" vertex="1">
          <mxGeometry x="293.75" y="122.5" width="182.5" height="160" as="geometry" />
        </mxCell>
        <mxCell id="1Bu1qQsimD0IRLWMEUHT-9" value="L&#39;operatore inserisce data e ora dell&#39;appuntamento e relativa motivazione" style="shape=parallelogram;perimeter=parallelogramPerimeter;whiteSpace=wrap;html=1;fixedSize=1;" parent="WIyWlLk6GJQsqaUBKTNV-1" vertex="1">
          <mxGeometry x="-306.25" y="520" width="205" height="65" as="geometry" />
        </mxCell>
        <mxCell id="1Bu1qQsimD0IRLWMEUHT-13" value="" style="endArrow=classic;html=1;rounded=0;exitX=0.089;exitY=0.622;exitDx=0;exitDy=0;exitPerimeter=0;" parent="WIyWlLk6GJQsqaUBKTNV-1" source="1Bu1qQsimD0IRLWMEUHT-6" target="1Bu1qQsimD0IRLWMEUHT-3" edge="1">
          <mxGeometry width="50" height="50" relative="1" as="geometry">
            <mxPoint x="170" y="450" as="sourcePoint" />
            <mxPoint x="210" y="360" as="targetPoint" />
          </mxGeometry>
        </mxCell>
        <mxCell id="1Bu1qQsimD0IRLWMEUHT-15" value="" style="edgeStyle=orthogonalEdgeStyle;rounded=0;orthogonalLoop=1;jettySize=auto;html=1;" parent="WIyWlLk6GJQsqaUBKTNV-1" source="1Bu1qQsimD0IRLWMEUHT-3" target="1Bu1qQsimD0IRLWMEUHT-14" edge="1">
          <mxGeometry relative="1" as="geometry">
            <mxPoint x="20" y="345" as="sourcePoint" />
            <mxPoint x="-194" y="185" as="targetPoint" />
          </mxGeometry>
        </mxCell>
        <mxCell id="1Bu1qQsimD0IRLWMEUHT-14" value="Telefonata" style="text;html=1;align=center;verticalAlign=middle;resizable=0;points=[];autosize=1;strokeColor=none;fillColor=none;" parent="WIyWlLk6GJQsqaUBKTNV-1" vertex="1">
          <mxGeometry x="-233.75" y="270" width="80" height="30" as="geometry" />
        </mxCell>
        <mxCell id="1Bu1qQsimD0IRLWMEUHT-17" value="" style="edgeStyle=orthogonalEdgeStyle;rounded=0;orthogonalLoop=1;jettySize=auto;html=1;" parent="WIyWlLk6GJQsqaUBKTNV-1" source="1Bu1qQsimD0IRLWMEUHT-3" target="1Bu1qQsimD0IRLWMEUHT-16" edge="1">
          <mxGeometry relative="1" as="geometry">
            <mxPoint x="20" y="345" as="sourcePoint" />
            <mxPoint x="-194" y="520" as="targetPoint" />
          </mxGeometry>
        </mxCell>
        <mxCell id="1Bu1qQsimD0IRLWMEUHT-16" value="Appuntamento" style="text;html=1;align=center;verticalAlign=middle;resizable=0;points=[];autosize=1;strokeColor=none;fillColor=none;" parent="WIyWlLk6GJQsqaUBKTNV-1" vertex="1">
          <mxGeometry x="-253.75" y="390" width="100" height="30" as="geometry" />
        </mxCell>
        <mxCell id="1Bu1qQsimD0IRLWMEUHT-20" value="Inserire Nuovi Dati" style="text;html=1;align=center;verticalAlign=middle;resizable=0;points=[];autosize=1;strokeColor=none;fillColor=none;rotation=-30;" parent="WIyWlLk6GJQsqaUBKTNV-1" vertex="1">
          <mxGeometry x="160" y="250" width="120" height="30" as="geometry" />
        </mxCell>
        <mxCell id="1Bu1qQsimD0IRLWMEUHT-21" value="Il dato da cancellare&lt;div&gt;è relativo alle telefonate&lt;/div&gt;&lt;div&gt;o agli appuntamenti?&lt;/div&gt;" style="rhombus;whiteSpace=wrap;html=1;" parent="WIyWlLk6GJQsqaUBKTNV-1" vertex="1">
          <mxGeometry x="580" y="270" width="180" height="150" as="geometry" />
        </mxCell>
        <mxCell id="1Bu1qQsimD0IRLWMEUHT-22" value="" style="endArrow=classic;html=1;rounded=0;entryX=0.167;entryY=0.3;entryDx=0;entryDy=0;entryPerimeter=0;" parent="WIyWlLk6GJQsqaUBKTNV-1" target="1Bu1qQsimD0IRLWMEUHT-21" edge="1">
          <mxGeometry width="50" height="50" relative="1" as="geometry">
            <mxPoint x="460" y="220" as="sourcePoint" />
            <mxPoint x="660" y="290" as="targetPoint" />
          </mxGeometry>
        </mxCell>
        <mxCell id="1Bu1qQsimD0IRLWMEUHT-24" value="Cancellare Dati Esistenti" style="text;html=1;align=center;verticalAlign=middle;resizable=0;points=[];autosize=1;strokeColor=none;fillColor=none;rotation=30;" parent="WIyWlLk6GJQsqaUBKTNV-1" vertex="1">
          <mxGeometry x="475" y="240" width="150" height="30" as="geometry" />
        </mxCell>
        <mxCell id="1Bu1qQsimD0IRLWMEUHT-25" value="L&#39;operatore sceglie i dati da&lt;div&gt;eliminare e clicca sull&#39;apposito&lt;/div&gt;&lt;div&gt;pulsante per cancellare&lt;/div&gt;" style="shape=parallelogram;perimeter=parallelogramPerimeter;whiteSpace=wrap;html=1;fixedSize=1;" parent="WIyWlLk6GJQsqaUBKTNV-1" vertex="1">
          <mxGeometry x="950" y="480" width="270" height="80" as="geometry" />
        </mxCell>
        <mxCell id="1Bu1qQsimD0IRLWMEUHT-26" value="L&#39;operatore sceglie i dati da&lt;div&gt;eliminare e clicca sull&#39;apposito&lt;/div&gt;&lt;div&gt;pulsante per cancellare&lt;/div&gt;" style="shape=parallelogram;perimeter=parallelogramPerimeter;whiteSpace=wrap;html=1;fixedSize=1;" parent="WIyWlLk6GJQsqaUBKTNV-1" vertex="1">
          <mxGeometry x="950" y="110" width="270" height="80" as="geometry" />
        </mxCell>
        <mxCell id="1Bu1qQsimD0IRLWMEUHT-30" value="" style="endArrow=classic;html=1;rounded=0;" parent="WIyWlLk6GJQsqaUBKTNV-1" edge="1">
          <mxGeometry width="50" height="50" relative="1" as="geometry">
            <mxPoint x="1084" y="250" as="sourcePoint" />
            <mxPoint x="1084.41" y="190" as="targetPoint" />
          </mxGeometry>
        </mxCell>
        <mxCell id="1Bu1qQsimD0IRLWMEUHT-31" value="" style="endArrow=classic;html=1;rounded=0;exitX=0.502;exitY=0.946;exitDx=0;exitDy=0;exitPerimeter=0;" parent="WIyWlLk6GJQsqaUBKTNV-1" target="1Bu1qQsimD0IRLWMEUHT-25" edge="1" source="1Bu1qQsimD0IRLWMEUHT-35">
          <mxGeometry width="50" height="50" relative="1" as="geometry">
            <mxPoint x="1085" y="420" as="sourcePoint" />
            <mxPoint x="1085.245882352941" y="400" as="targetPoint" />
          </mxGeometry>
        </mxCell>
        <mxCell id="1Bu1qQsimD0IRLWMEUHT-34" value="Telefonata" style="text;html=1;align=center;verticalAlign=middle;resizable=0;points=[];autosize=1;strokeColor=none;fillColor=none;" parent="WIyWlLk6GJQsqaUBKTNV-1" vertex="1">
          <mxGeometry x="1035" y="260" width="80" height="30" as="geometry" />
        </mxCell>
        <mxCell id="1Bu1qQsimD0IRLWMEUHT-35" value="Appuntamento" style="text;html=1;align=center;verticalAlign=middle;resizable=0;points=[];autosize=1;strokeColor=none;fillColor=none;" parent="WIyWlLk6GJQsqaUBKTNV-1" vertex="1">
          <mxGeometry x="1035" y="380" width="100" height="30" as="geometry" />
        </mxCell>
        <mxCell id="1Bu1qQsimD0IRLWMEUHT-37" value="" style="endArrow=none;html=1;rounded=0;" parent="WIyWlLk6GJQsqaUBKTNV-1" edge="1">
          <mxGeometry width="50" height="50" relative="1" as="geometry">
            <mxPoint x="757" y="344.40999999999997" as="sourcePoint" />
            <mxPoint x="900" y="344" as="targetPoint" />
          </mxGeometry>
        </mxCell>
        <mxCell id="1Bu1qQsimD0IRLWMEUHT-38" value="" style="endArrow=none;html=1;rounded=0;" parent="WIyWlLk6GJQsqaUBKTNV-1" edge="1">
          <mxGeometry width="50" height="50" relative="1" as="geometry">
            <mxPoint x="900" y="400" as="sourcePoint" />
            <mxPoint x="900" y="280" as="targetPoint" />
          </mxGeometry>
        </mxCell>
        <mxCell id="1Bu1qQsimD0IRLWMEUHT-39" value="" style="endArrow=classic;html=1;rounded=0;entryX=-0.039;entryY=0.694;entryDx=0;entryDy=0;entryPerimeter=0;" parent="WIyWlLk6GJQsqaUBKTNV-1" target="1Bu1qQsimD0IRLWMEUHT-34" edge="1">
          <mxGeometry width="50" height="50" relative="1" as="geometry">
            <mxPoint x="900" y="281" as="sourcePoint" />
            <mxPoint x="1020" y="280" as="targetPoint" />
          </mxGeometry>
        </mxCell>
        <mxCell id="1Bu1qQsimD0IRLWMEUHT-40" value="" style="endArrow=classic;html=1;rounded=0;" parent="WIyWlLk6GJQsqaUBKTNV-1" edge="1">
          <mxGeometry width="50" height="50" relative="1" as="geometry">
            <mxPoint x="900" y="400" as="sourcePoint" />
            <mxPoint x="1040" y="400.40999999999997" as="targetPoint" />
          </mxGeometry>
        </mxCell>
        <mxCell id="htgVPEzMu-FuBdbAJMFI-0" value="Fine" style="rounded=1;whiteSpace=wrap;html=1;" vertex="1" parent="WIyWlLk6GJQsqaUBKTNV-1">
          <mxGeometry x="1410" y="310" width="120" height="60" as="geometry" />
        </mxCell>
        <mxCell id="htgVPEzMu-FuBdbAJMFI-1" value="Fine" style="rounded=1;whiteSpace=wrap;html=1;" vertex="1" parent="WIyWlLk6GJQsqaUBKTNV-1">
          <mxGeometry x="-630" y="310" width="120" height="60" as="geometry" />
        </mxCell>
        <mxCell id="htgVPEzMu-FuBdbAJMFI-2" value="" style="endArrow=classic;html=1;rounded=0;entryX=1;entryY=0;entryDx=0;entryDy=0;exitX=0;exitY=0.5;exitDx=0;exitDy=0;" edge="1" parent="WIyWlLk6GJQsqaUBKTNV-1" source="1Bu1qQsimD0IRLWMEUHT-4" target="htgVPEzMu-FuBdbAJMFI-1">
          <mxGeometry width="50" height="50" relative="1" as="geometry">
            <mxPoint x="-480" y="260" as="sourcePoint" />
            <mxPoint x="-430" y="210" as="targetPoint" />
          </mxGeometry>
        </mxCell>
        <mxCell id="htgVPEzMu-FuBdbAJMFI-3" value="" style="endArrow=classic;html=1;rounded=0;entryX=1;entryY=1;entryDx=0;entryDy=0;exitX=0.021;exitY=0.492;exitDx=0;exitDy=0;exitPerimeter=0;" edge="1" parent="WIyWlLk6GJQsqaUBKTNV-1" source="1Bu1qQsimD0IRLWMEUHT-9" target="htgVPEzMu-FuBdbAJMFI-1">
          <mxGeometry width="50" height="50" relative="1" as="geometry">
            <mxPoint x="-490" y="520" as="sourcePoint" />
            <mxPoint x="-440" y="470" as="targetPoint" />
          </mxGeometry>
        </mxCell>
        <mxCell id="htgVPEzMu-FuBdbAJMFI-4" value="" style="endArrow=classic;html=1;rounded=0;entryX=0;entryY=0;entryDx=0;entryDy=0;" edge="1" parent="WIyWlLk6GJQsqaUBKTNV-1" target="htgVPEzMu-FuBdbAJMFI-0">
          <mxGeometry width="50" height="50" relative="1" as="geometry">
            <mxPoint x="1210" y="150" as="sourcePoint" />
            <mxPoint x="1280" y="200" as="targetPoint" />
          </mxGeometry>
        </mxCell>
        <mxCell id="htgVPEzMu-FuBdbAJMFI-5" value="" style="endArrow=classic;html=1;rounded=0;entryX=0;entryY=1;entryDx=0;entryDy=0;" edge="1" parent="WIyWlLk6GJQsqaUBKTNV-1" target="htgVPEzMu-FuBdbAJMFI-0">
          <mxGeometry width="50" height="50" relative="1" as="geometry">
            <mxPoint x="1210" y="520" as="sourcePoint" />
            <mxPoint x="1260" y="470" as="targetPoint" />
          </mxGeometry>
        </mxCell>
      </root>
    </mxGraphModel>
  </diagram>
</mxfile>
